# xmcd
#
# Track frame offsets:
#	150
#	14224
#	30583
#	45571
#	61097
#	75913
#	90276
#	105059
#	120279
#	136493
#	151963
#	168682
#	183548
#	198982
#	213187
#	227712
#	242426
#	257846
#	273792
#	289461
#
# Disc length: 4051 seconds
#
# Revision: 0
# Processed by: cddbd v1.5.2PL0 Copyright (c) Steve Scherf et al.
# Submitted via: EasyCDDAExtractor 16.0.6.1
#
DISCID=000fd114
DTITLE=Συλλογικός δίσκος - Τα ρεμπέτικα Γ 1937-1960 19 Β
DYEAR=2010
DGENRE=Ρεμπέτικη
TTITLE0=Μοσχονάς Οδυσσέας - Ο γυρισμός [ζεϊμπ., Γ. Παπαϊωάννου, Αθήνα 1950]
TTITLE1=Νίνου Μαρίκα-Τσαουσάκης Π.-Τσιτσάνης Β. - Το όνειρο της αδελφής [ζεϊμπ
TTITLE1=, Β. Τσιτσάνης, Αθ 1950]
TTITLE2=Χασκίλ Στέλλα-Τατασσόπουλος Γ.-Μπίνης Τ. - Το καραβάνι (τσιγγάνικη καρ
TTITLE2=διά)[Σ.Περιστέρης-Ζ.Ιακβίδης,Αθ1951]
TTITLE3=Τσαουσάκης Πρόδρομος - Μέσ' στο κελλί μου ξάγρυπνος [ζεϊμπ., Β. Τσιτσά
TTITLE3=νης, Αθ 1951]
TTITLE4=Μοσχονάς Οδυσσέας-Καλλέργης Νίκος - Καλή καρδιά [χασ., Γ. Παπαϊωάννου,
TTITLE4=Αθήνα 1950]
TTITLE5=Τσαουσάκης Πρόδρομος-Ντάλια Ρ.-Γιαννόπουλος Αθ. - Όμορφη Θεσσαλονίκη [
TTITLE5=χασ., Β. Τσιτσάνης, Αθ 1950]
TTITLE6=Στάμου Ρένα-Βούλγαρης Νίκος-Τσιτσάνης Β. - Απόψε μ' εγκατέλειψες [ζεϊμ
TTITLE6=π., Σ. Χρυσίνης, Αθ 31.3.1950]
TTITLE7=Νίνου Μαρίκα-Τσαουσάκης Π.-Ευσταθίου Σπύρος - Τα διαλεχτά παιδιά [χασ.
TTITLE7=, Β. Τσιτσάνης, Αθήνα 6.1951]
TTITLE8=Μητσάκης Γιώργος-Τατασσόπουλος Γ.-Στάμου Ρ. - Το ιπποδρόμιο [ζεϊμπ., Γ
TTITLE8=Μητσάκης, Αθ12.6.1951]
TTITLE9=Ευγενικός Αθανάσιος-Χασκίλ Στέλλα - Τα νιάτα τα μπερμπάντικα [ζεϊμπ., 
TTITLE9=Β. Τσιτσάνης, Αθ 1951 ή 52]
TTITLE10=Τζουανάκος Σταύρος-Νίνου Μαρίκα - Σε τούτο το παλιόσπιτο [ζεϊμπ., Β. 
TTITLE10=Τσιτσάνης, Αθήνα 3.1951]
TTITLE11=Τσαουσάκης Πρόδρομος-Ντάλια Ρένα - Βρε ζωή φαρμάκια στάζεις [ζεϊμπ., 
TTITLE11=Α. Καλδάρας, Αθήνα 1952]
TTITLE12=Νίνου Μαρίκα-χορωδία - Η Σεράχ [τσιφτ., Β. Τσιτσάνης, Αθήνα 1951]
TTITLE13=Τσαουσάκης Πρόδρομος-Στάμου Ρ.-Καλλέργης Ν. - Ήθελα νά 'μουνα πασάς [
TTITLE13=τσιφτ., Σ. Χρυσίνης, Αθ 1951 ή 52]
TTITLE14=Τσαουσάκης Πρόδρομος-Ντάλια Ρένα - Στρώσε μου να κοιμηθώ [ζεϊμπ., Β. 
TTITLE14=Τσιτσάνης, Αθήνα 1950]
TTITLE15=Νίνου Μαρίκα-Μητσάκης Γ.-Τατασσόπουλος Γ. - Παλαμάκια [Γ. Μητσάκης, Α
TTITLE15=θήνα 1951]
TTITLE16=Τσαουσάκης Πρόδρομος-Γιαννόπουλος Αθ.-Τσιτσάνης Β. - Ο ουρανός έχει μ
TTITLE16=αυρίσει [ζεϊμπ., Β. Τσιτσάνης, Αθήνα 1951]
TTITLE17=Τζουανάκος Σταύρος - Σταλαγματιά, σταλαγματιά [ζεϊμπ., Σ. Τζουανάκος,
TTITLE17=Αθ 1950]
TTITLE18=Χασκίλ Στέλλα-Μπίνης Τάκης - Καίγομαι, καίγομαι [ζεϊμπ., Γ. Κλουβάτος
TTITLE18=, Αθήνα 1951]
TTITLE19=Τσαουσάκης Πρόδρομος-Νίνου Μ.-Τσιτσάνης Β. - Οι φάμπρικες [ζεϊμπ., Β.
TTITLE19=Τσιτσάνης, Αθήνα 1950]
EXTD=
EXTT0=
EXTT1=
EXTT2=
EXTT3=
EXTT4=
EXTT5=
EXTT6=
EXTT7=
EXTT8=
EXTT9=
EXTT10=
EXTT11=
EXTT12=
EXTT13=
EXTT14=
EXTT15=
EXTT16=
EXTT17=
EXTT18=
EXTT19=
PLAYORDER=
